<svg width="173" height="32" viewBox="0 0 173 32" fill="none" xmlns="http://www.w3.org/2000/svg">
<path d="M13.0479 7.54545H16.9173L20.011 20.1932H20.2156L27.4854 7.54545H31.3548L28.457 25H25.4229L27.4173 13.0085H27.2639L20.4457 24.9489H18.1871L15.3576 12.983H15.1957L13.1843 25H10.1502L13.0479 7.54545ZM35.4968 25.2642C34.6673 25.2642 33.9457 25.1165 33.332 24.821C32.7184 24.5199 32.2667 24.0767 31.9769 23.4915C31.6928 22.9062 31.6218 22.1847 31.7638 21.3267C31.8888 20.5881 32.1275 19.9773 32.4798 19.4943C32.8377 19.0114 33.2752 18.625 33.7923 18.3352C34.315 18.0398 34.8832 17.8182 35.4968 17.6705C36.1161 17.5227 36.7468 17.4148 37.3888 17.3466C38.1729 17.267 38.8065 17.1932 39.2894 17.125C39.7781 17.0568 40.1445 16.9545 40.3888 16.8182C40.6332 16.6761 40.7809 16.4602 40.832 16.1705V16.1193C40.9343 15.4773 40.832 14.9801 40.5252 14.6278C40.2184 14.2756 39.707 14.0994 38.9911 14.0994C38.2411 14.0994 37.6104 14.2642 37.0991 14.5938C36.5877 14.9233 36.2156 15.3125 35.9826 15.7614L33.1871 15.3523C33.5394 14.5568 34.0224 13.892 34.636 13.358C35.2496 12.8182 35.957 12.4148 36.7582 12.1477C37.565 11.875 38.4258 11.7386 39.3406 11.7386C39.9656 11.7386 40.5763 11.8125 41.1729 11.9602C41.7752 12.108 42.3065 12.3523 42.7667 12.6932C43.2326 13.0284 43.5735 13.4858 43.7894 14.0653C44.011 14.6449 44.0479 15.3693 43.9002 16.2386L42.4428 25H39.4769L39.7837 23.2017H39.6815C39.4371 23.5653 39.119 23.9062 38.7269 24.2244C38.3349 24.5369 37.869 24.7898 37.3292 24.983C36.7894 25.1705 36.1786 25.2642 35.4968 25.2642ZM36.6644 22.9972C37.2837 22.9972 37.8406 22.875 38.3349 22.6307C38.8292 22.3807 39.2354 22.0511 39.5536 21.642C39.8718 21.233 40.0707 20.7869 40.1502 20.304L40.4059 18.7614C40.2923 18.8409 40.1161 18.9148 39.8775 18.983C39.6388 19.0511 39.3718 19.1108 39.0763 19.1619C38.7866 19.2131 38.4996 19.2585 38.2156 19.2983C37.9315 19.3381 37.6871 19.3722 37.4826 19.4006C37.011 19.4631 36.5792 19.5653 36.1871 19.7074C35.8008 19.8494 35.4798 20.0483 35.2241 20.304C34.9741 20.554 34.8178 20.8778 34.7553 21.2756C34.6644 21.8381 34.7979 22.267 35.1559 22.5625C35.5138 22.8523 36.0167 22.9972 36.6644 22.9972ZM49.0309 20.892L49.636 17.1676H50.1303L55.7298 11.9091H59.3349L52.4826 18.3523H51.8519L49.0309 20.892ZM45.5451 25L48.4428 7.54545H51.5281L48.6303 25H45.5451ZM53.761 25L50.4883 19.0426L52.9343 16.8693L57.4514 25H53.761ZM59.2092 25L61.391 11.9091H64.4762L62.2944 25H59.2092ZM63.3853 10.0341C62.891 10.0341 62.4819 9.86932 62.158 9.53977C61.8342 9.21023 61.6921 8.81534 61.7319 8.35511C61.7717 7.89489 61.979 7.5 62.354 7.17045C62.7347 6.84091 63.1694 6.67614 63.658 6.67614C64.1523 6.67614 64.5586 6.84091 64.8768 7.17045C65.2006 7.5 65.3427 7.89489 65.3029 8.35511C65.2688 8.81534 65.0614 9.21023 64.6808 9.53977C64.3058 9.86932 63.8739 10.0341 63.3853 10.0341ZM69.8306 17.3295L68.5692 25H65.4755L67.6573 11.9091H70.6147L70.2397 14.1335H70.4016C70.8107 13.4006 71.3846 12.8182 72.1232 12.3864C72.8619 11.9545 73.7227 11.7386 74.7056 11.7386C75.5977 11.7386 76.3477 11.9318 76.9556 12.3182C77.5636 12.6989 77.9954 13.2585 78.2511 13.9972C78.5067 14.7301 78.5465 15.6193 78.3704 16.6648L76.9727 25H73.8874L75.1914 17.142C75.3391 16.2727 75.2283 15.5909 74.859 15.0966C74.4954 14.5966 73.9102 14.3466 73.1033 14.3466C72.5636 14.3466 72.0664 14.4659 71.6119 14.7045C71.1573 14.9375 70.7738 15.2756 70.4613 15.7188C70.1545 16.1619 69.9442 16.6989 69.8306 17.3295ZM84.967 30.1818C83.8533 30.1818 82.9244 30.0313 82.18 29.7301C81.4357 29.4347 80.8619 29.0369 80.4585 28.5369C80.055 28.0369 79.805 27.483 79.7085 26.875L82.6062 26.2017C82.6914 26.4574 82.8278 26.7102 83.0153 26.9602C83.2085 27.2159 83.4925 27.4261 83.8675 27.5909C84.2425 27.7614 84.7425 27.8466 85.3675 27.8466C86.2425 27.8466 87.0067 27.6335 87.6602 27.2074C88.3136 26.7813 88.717 26.0881 88.8704 25.1278L89.2624 22.6477H89.109C88.9045 22.9659 88.6232 23.2926 88.2653 23.6278C87.913 23.9631 87.467 24.2443 86.9272 24.4716C86.3931 24.6989 85.7511 24.8125 85.0011 24.8125C83.9954 24.8125 83.1232 24.5767 82.3846 24.1051C81.646 23.6278 81.1147 22.9176 80.7908 21.9744C80.4727 21.0256 80.4329 19.8381 80.6715 18.4119C80.9045 16.9744 81.342 15.7614 81.984 14.7727C82.6317 13.7784 83.4073 13.0256 84.3107 12.5142C85.2141 11.9972 86.1687 11.7386 87.1744 11.7386C87.9414 11.7386 88.5522 11.8693 89.0067 12.1307C89.4613 12.3864 89.805 12.696 90.038 13.0597C90.271 13.4176 90.4414 13.7557 90.5494 14.0739H90.7113L91.0692 11.9091H94.1119L91.913 25.2131C91.7312 26.3324 91.3136 27.2585 90.6602 27.9915C90.0067 28.7301 89.1857 29.2784 88.1971 29.6364C87.2141 30 86.1374 30.1818 84.967 30.1818ZM86.2283 22.392C86.8817 22.392 87.467 22.233 87.984 21.9148C88.5011 21.5966 88.9329 21.1392 89.2795 20.5426C89.6261 19.946 89.8675 19.2301 90.0039 18.3949C90.1403 17.571 90.1346 16.8494 89.9869 16.2301C89.8448 15.6108 89.5692 15.1307 89.1602 14.7898C88.7511 14.4432 88.217 14.2699 87.5579 14.2699C86.8704 14.2699 86.2681 14.4489 85.7511 14.8068C85.2397 15.1648 84.8192 15.6562 84.4897 16.2812C84.1658 16.9006 83.9386 17.6051 83.8079 18.3949C83.6829 19.196 83.6829 19.8977 83.8079 20.5C83.9386 21.0966 84.2028 21.5625 84.6005 21.8977C85.0039 22.2273 85.5465 22.392 86.2283 22.392ZM112.747 12.429C112.77 11.6392 112.528 11.0341 112.022 10.6136C111.522 10.1932 110.804 9.98295 109.866 9.98295C109.207 9.98295 108.625 10.0824 108.119 10.2812C107.619 10.4744 107.216 10.7443 106.909 11.0909C106.602 11.4318 106.412 11.821 106.338 12.2585C106.275 12.6165 106.306 12.929 106.431 13.196C106.556 13.4631 106.747 13.6903 107.002 13.8778C107.264 14.0653 107.559 14.2216 107.889 14.3466C108.224 14.4716 108.565 14.5767 108.912 14.6619L110.48 15.071C111.105 15.2244 111.701 15.4318 112.27 15.6932C112.838 15.9489 113.329 16.2784 113.744 16.6818C114.164 17.0795 114.471 17.5597 114.664 18.1222C114.858 18.6847 114.889 19.3437 114.758 20.0994C114.588 21.1222 114.176 22.0227 113.522 22.8011C112.875 23.5739 112.022 24.179 110.966 24.6165C109.914 25.0483 108.69 25.2642 107.292 25.2642C105.94 25.2642 104.798 25.054 103.866 24.6335C102.934 24.2074 102.252 23.5909 101.821 22.7841C101.395 21.9773 101.258 20.9972 101.412 19.8438H104.522C104.46 20.4517 104.559 20.9574 104.821 21.3608C105.088 21.7642 105.471 22.0653 105.971 22.2642C106.471 22.4631 107.051 22.5625 107.71 22.5625C108.397 22.5625 109.02 22.4602 109.576 22.2557C110.133 22.0455 110.588 21.7557 110.94 21.3864C111.298 21.0114 111.517 20.5739 111.596 20.0739C111.676 19.625 111.61 19.25 111.4 18.9489C111.19 18.6477 110.863 18.3977 110.42 18.1989C109.983 17.9943 109.46 17.8125 108.852 17.6534L106.96 17.142C105.591 16.767 104.551 16.2045 103.841 15.4545C103.136 14.7045 102.886 13.7045 103.091 12.4545C103.261 11.4205 103.69 10.5199 104.377 9.75284C105.065 8.98011 105.926 8.38068 106.96 7.95454C107.994 7.52273 109.125 7.30682 110.352 7.30682C111.591 7.30682 112.639 7.52273 113.497 7.95454C114.36 8.38636 114.991 8.98864 115.389 9.76136C115.792 10.5284 115.926 11.4176 115.789 12.429H112.747ZM125.35 11.9091L124.949 14.2955H117.432L117.824 11.9091H125.35ZM120.194 8.77273H123.279L121.233 21.0625C121.171 21.4773 121.182 21.7955 121.267 22.017C121.358 22.233 121.503 22.3807 121.702 22.4602C121.907 22.5398 122.137 22.5795 122.392 22.5795C122.58 22.5795 122.756 22.5653 122.921 22.5369C123.086 22.5028 123.216 22.4773 123.313 22.4602L123.449 24.8722C123.262 24.929 123.009 24.9915 122.691 25.0597C122.378 25.1278 122.003 25.1676 121.566 25.179C120.782 25.196 120.1 25.0767 119.52 24.821C118.946 24.5597 118.526 24.1591 118.259 23.6193C117.998 23.0739 117.938 22.392 118.08 21.5739L120.194 8.77273ZM131.352 25.2557C130.062 25.2557 128.988 24.9716 128.13 24.4034C127.278 23.8352 126.679 23.0369 126.332 22.0085C125.985 20.9801 125.923 19.7869 126.145 18.429C126.366 17.0881 126.809 15.9148 127.474 14.9091C128.145 13.9034 128.988 13.125 130.005 12.5739C131.028 12.017 132.173 11.7386 133.44 11.7386C134.73 11.7386 135.801 12.0256 136.653 12.5994C137.505 13.1676 138.105 13.9659 138.451 14.9943C138.804 16.0227 138.869 17.2216 138.647 18.5909C138.431 19.9261 137.985 21.0938 137.309 22.0938C136.639 23.0938 135.795 23.8722 134.778 24.429C133.761 24.9801 132.619 25.2557 131.352 25.2557ZM131.608 22.7841C132.324 22.7841 132.951 22.5909 133.491 22.2045C134.037 21.8125 134.483 21.2869 134.829 20.6278C135.181 19.9631 135.426 19.2244 135.562 18.4119C135.687 17.6278 135.69 16.9176 135.571 16.2812C135.451 15.6392 135.196 15.1307 134.804 14.7557C134.417 14.375 133.88 14.1847 133.193 14.1847C132.477 14.1847 131.843 14.3835 131.292 14.7812C130.747 15.1733 130.301 15.7017 129.954 16.3665C129.608 17.0256 129.369 17.7614 129.238 18.5739C129.108 19.358 129.102 20.0682 129.221 20.7045C129.341 21.3409 129.596 21.8466 129.988 22.2216C130.38 22.5966 130.92 22.7841 131.608 22.7841ZM140.209 25L142.391 11.9091H145.382L145.016 14.0909H145.152C145.51 13.3352 146.016 12.7528 146.669 12.3438C147.328 11.929 148.033 11.7216 148.783 11.7216C148.959 11.7216 149.15 11.7301 149.354 11.7472C149.559 11.7585 149.735 11.7784 149.882 11.8068L149.405 14.6449C149.275 14.5994 149.07 14.5597 148.792 14.5256C148.519 14.4858 148.249 14.4659 147.982 14.4659C147.419 14.4659 146.897 14.5881 146.414 14.8324C145.936 15.071 145.533 15.4034 145.203 15.8295C144.874 16.2557 144.661 16.7472 144.564 17.304L143.294 25H140.209ZM151.263 29.9091C150.843 29.9091 150.459 29.875 150.113 29.8068C149.772 29.7443 149.502 29.6705 149.303 29.5852L150.428 27.1818C150.854 27.3125 151.238 27.3693 151.578 27.3523C151.925 27.3409 152.243 27.2244 152.533 27.0028C152.828 26.7869 153.118 26.4318 153.402 25.9375L153.794 25.2301L151.289 11.9091H154.442L155.806 21.8125H155.942L160.621 11.9091H164.022L156.36 26.5682C155.99 27.2784 155.561 27.8807 155.073 28.375C154.584 28.875 154.025 29.2557 153.394 29.517C152.769 29.7784 152.059 29.9091 151.263 29.9091Z" fill="#1600A0"/>
</svg>
