<svg width="40" height="21" viewBox="0 0 40 21" fill="none" xmlns="http://www.w3.org/2000/svg">
<rect y="0.143173" width="40" height="20.8568" rx="10.4284" fill="#AD00D8"/>
<path d="M11.0378 5.09091H13.4561L15.3897 12.9957H15.5175L20.0612 5.09091H22.4795L20.6685 16H18.7722L20.0186 8.50533H19.9227L15.6614 15.968H14.2498L12.4813 8.48935H12.3801L11.123 16H9.2267L11.0378 5.09091ZM30.0488 8.14311C30.063 7.6495 29.9121 7.27131 29.596 7.00852C29.2835 6.74574 28.8343 6.61435 28.2484 6.61435C27.8364 6.61435 27.4724 6.67649 27.1564 6.80078C26.8439 6.92152 26.5918 7.0902 26.4 7.30682C26.2082 7.51989 26.0893 7.76314 26.0431 8.03658C26.004 8.2603 26.0236 8.45561 26.1017 8.62251C26.1798 8.78942 26.2988 8.93146 26.4586 9.04865C26.6219 9.16584 26.8066 9.26349 27.0126 9.34162C27.2221 9.41974 27.4351 9.48544 27.6518 9.53871L28.6319 9.79439C29.0225 9.89027 29.3954 10.0199 29.7505 10.1832C30.1056 10.343 30.4128 10.549 30.672 10.8011C30.9348 11.0497 31.1266 11.3498 31.2473 11.7013C31.368 12.0529 31.3876 12.4648 31.3059 12.9371C31.1994 13.5763 30.9419 14.1392 30.5335 14.6257C30.1287 15.1087 29.596 15.4869 28.9355 15.7603C28.2785 16.0302 27.5133 16.1651 26.6397 16.1651C25.7945 16.1651 25.0807 16.0337 24.4984 15.771C23.916 15.5046 23.4898 15.1193 23.2199 14.6151C22.9536 14.1108 22.8684 13.4982 22.9643 12.7773H24.9085C24.8695 13.1573 24.9316 13.4734 25.0949 13.7255C25.2619 13.9776 25.5016 14.1658 25.8141 14.2901C26.1266 14.4144 26.4888 14.4766 26.9007 14.4766C27.3304 14.4766 27.7192 14.4126 28.0672 14.2848C28.4153 14.1534 28.6994 13.9723 28.9195 13.7415C29.1432 13.5071 29.28 13.2337 29.3297 12.9212C29.3794 12.6406 29.3386 12.4062 29.2072 12.218C29.0758 12.0298 28.8716 11.8736 28.5946 11.7493C28.3212 11.6214 27.9945 11.5078 27.6145 11.4084L26.432 11.0888C25.5761 10.8544 24.9263 10.5028 24.4824 10.0341C24.042 9.56534 23.8858 8.94034 24.0136 8.15909C24.1202 7.51278 24.3883 6.94993 24.818 6.47053C25.2476 5.98757 25.7856 5.61293 26.432 5.34659C27.0783 5.0767 27.7849 4.94176 28.552 4.94176C29.3261 4.94176 29.9813 5.0767 30.5175 5.34659C31.0573 5.61648 31.4515 5.9929 31.7001 6.47585C31.9522 6.95526 32.0356 7.51101 31.9504 8.14311H30.0488Z" fill="#D8DC01"/>
</svg>
